<?xml version="1.0" encoding="UTF-8" ?>
<!DOCTYPE svg PUBLIC "-//W3C//DTD SVG 1.1//EN" "http://www.w3.org/Graphics/SVG/1.1/DTD/svg11.dtd">
<svg width="157pt" height="170pt" viewBox="0 0 157 170" version="1.1" xmlns="http://www.w3.org/2000/svg">
<g id="#ffffffff">
<path fill="#ffffff" opacity="1.00" d=" M 0.00 0.00 L 86.75 0.00 C 79.49 8.16 75.78 18.77 72.27 28.94 C 85.53 25.79 98.85 22.87 112.30 20.63 C 105.19 12.86 97.79 4.88 88.31 0.00 L 157.00 0.00 L 157.00 125.37 C 153.51 125.32 150.02 125.32 146.53 125.34 C 146.53 121.37 146.53 117.40 146.57 113.43 C 142.70 113.43 138.84 113.42 134.97 113.51 C 135.29 117.45 135.27 121.42 134.92 125.36 C 133.30 125.35 131.69 125.36 130.07 125.36 C 130.17 128.73 130.18 132.10 130.07 135.48 C 131.77 135.52 133.48 135.55 135.18 135.59 C 135.26 142.96 135.00 150.33 135.34 157.69 C 135.50 161.66 137.20 166.12 141.18 167.64 C 146.27 169.51 151.85 168.50 157.00 167.42 L 157.00 170.00 L 51.27 170.00 C 52.23 168.91 53.14 167.78 54.06 166.66 C 60.18 169.13 67.25 169.45 73.48 167.22 C 79.37 165.03 82.92 158.98 83.54 152.94 C 84.29 145.10 84.46 136.38 79.43 129.78 C 80.61 128.02 81.80 126.27 82.98 124.51 C 81.34 123.48 79.69 122.45 78.04 121.43 C 76.99 123.00 75.94 124.56 74.90 126.13 C 68.29 123.84 60.64 123.29 54.19 126.36 C 48.98 128.84 46.10 134.52 45.44 140.05 C 44.66 147.88 44.66 156.50 49.53 163.12 C 48.47 164.51 47.41 165.90 46.35 167.29 C 47.94 168.21 49.54 169.13 51.17 170.00 L 0.00 170.00 L 0.00 167.61 C 3.88 167.64 7.77 167.63 11.65 167.66 C 11.63 161.33 11.66 155.01 11.64 148.68 C 15.32 148.68 19.01 148.68 22.69 148.64 C 25.12 154.95 27.32 161.33 29.66 167.68 C 33.97 167.63 38.29 167.64 42.61 167.62 C 39.70 160.33 37.17 152.90 34.33 145.58 C 38.08 142.56 41.65 138.78 42.31 133.80 C 43.00 127.89 43.16 121.35 39.87 116.13 C 36.72 111.22 30.64 109.21 25.04 109.22 C 16.69 109.13 8.35 109.20 0.00 109.21 L 0.00 0.00 M 120.88 23.89 C 127.24 34.23 134.62 43.96 140.45 54.64 C 140.72 54.68 141.26 54.75 141.52 54.78 C 146.56 48.19 151.11 41.18 154.75 33.72 C 155.92 31.62 156.01 29.20 156.11 26.86 C 144.97 22.41 132.61 23.22 120.88 23.89 M 70.74 33.91 C 67.18 47.31 64.18 61.04 64.14 74.97 C 77.51 81.87 91.53 87.54 106.06 91.46 C 117.61 81.84 128.31 71.20 137.91 59.63 C 131.75 47.08 124.82 34.64 115.28 24.33 C 100.25 26.58 85.33 29.66 70.74 33.91 M 36.91 49.88 C 35.49 51.02 33.14 53.11 35.02 54.90 C 42.00 62.29 51.01 67.35 59.65 72.55 C 61.01 60.04 63.36 47.68 65.89 35.36 C 55.60 38.71 45.40 43.06 36.91 49.88 M 111.80 93.31 C 124.61 97.48 137.98 101.35 151.58 100.53 C 152.80 98.02 151.84 95.31 151.19 92.79 C 148.36 82.84 144.41 73.26 140.12 63.86 C 130.95 73.93 121.45 83.70 111.80 93.31 M 63.81 80.12 C 63.61 92.64 63.40 105.46 66.71 117.63 C 70.17 117.87 73.17 115.99 76.09 114.41 C 84.23 109.70 91.64 103.86 98.88 97.88 C 99.54 97.10 100.94 96.61 100.84 95.40 C 88.39 90.56 76.11 85.32 63.81 80.12 M 114.30 108.25 C 114.26 113.97 114.27 119.68 114.29 125.40 C 107.28 124.00 98.89 123.01 93.10 128.15 C 87.65 133.54 87.37 141.83 87.59 149.01 C 87.83 155.24 88.82 162.62 94.50 166.34 C 100.57 170.05 108.06 168.58 114.33 166.20 L 114.39 167.70 C 118.16 167.62 121.94 167.63 125.71 167.64 C 125.63 147.85 125.67 128.07 125.69 108.29 C 121.89 108.30 118.10 108.31 114.30 108.25 Z" />
<path fill="#ffffff" opacity="1.00" d=" M 11.61 120.35 C 16.26 120.45 20.95 120.00 25.56 120.62 C 33.07 122.75 32.43 136.32 24.55 137.42 C 20.25 137.78 15.93 137.48 11.62 137.56 C 11.66 131.82 11.66 126.08 11.61 120.35 Z" />
<path fill="#ffffff" opacity="1.00" d=" M 103.92 134.82 C 107.37 134.15 110.91 134.84 114.31 135.46 C 114.28 142.53 114.22 149.61 114.35 156.68 C 110.42 157.52 105.92 159.15 102.17 156.95 C 98.95 154.32 99.36 149.70 99.20 145.97 C 99.22 141.95 99.54 136.55 103.92 134.82 Z" />
<path fill="#ffffff" opacity="1.00" d=" M 57.93 138.12 C 59.83 134.24 65.03 133.72 68.55 135.54 C 64.43 140.95 60.87 146.75 56.81 152.19 C 56.60 147.52 55.88 142.50 57.93 138.12 Z" />
<path fill="#ffffff" opacity="1.00" d=" M 146.54 135.53 C 150.02 135.54 153.51 135.54 157.00 135.51 L 157.00 166.44 C 156.82 163.50 156.63 160.57 156.51 157.62 C 153.43 157.16 148.69 159.26 146.82 155.95 C 146.15 149.18 146.73 142.33 146.54 135.53 Z" />
<path fill="#ffffff" opacity="1.00" d=" M 60.14 157.44 C 64.26 151.92 67.87 146.04 72.08 140.59 C 72.50 145.30 73.05 150.35 71.08 154.80 C 69.14 158.85 63.79 159.16 60.14 157.44 Z" />
</g>
<g id="#e31c23ff">
<path fill="#e31c23" opacity="1.00" d=" M 86.75 0.00 L 88.31 0.00 C 97.79 4.88 105.19 12.86 112.30 20.63 C 98.85 22.87 85.53 25.79 72.27 28.94 C 75.78 18.77 79.49 8.16 86.75 0.00 Z" />
<path fill="#e31c23" opacity="1.00" d=" M 120.88 23.89 C 132.61 23.22 144.97 22.41 156.11 26.86 C 156.01 29.20 155.92 31.62 154.75 33.72 C 151.11 41.18 146.56 48.19 141.52 54.78 C 141.26 54.75 140.72 54.68 140.45 54.64 C 134.62 43.96 127.24 34.23 120.88 23.89 Z" />
<path fill="#e31c23" opacity="1.00" d=" M 70.74 33.91 C 85.33 29.66 100.25 26.58 115.28 24.33 C 124.82 34.64 131.75 47.08 137.91 59.63 C 128.31 71.20 117.61 81.84 106.06 91.46 C 91.53 87.54 77.51 81.87 64.14 74.97 C 64.18 61.04 67.18 47.31 70.74 33.91 Z" />
<path fill="#e31c23" opacity="1.00" d=" M 36.91 49.88 C 45.40 43.06 55.60 38.71 65.89 35.36 C 63.36 47.68 61.01 60.04 59.65 72.55 C 51.01 67.35 42.00 62.29 35.02 54.90 C 33.14 53.11 35.49 51.02 36.91 49.88 Z" />
<path fill="#e31c23" opacity="1.00" d=" M 111.80 93.31 C 121.45 83.70 130.95 73.93 140.12 63.86 C 144.41 73.26 148.36 82.84 151.19 92.79 C 151.84 95.31 152.80 98.02 151.58 100.53 C 137.98 101.35 124.61 97.48 111.80 93.31 Z" />
<path fill="#e31c23" opacity="1.00" d=" M 63.81 80.12 C 76.11 85.32 88.39 90.56 100.84 95.40 C 100.94 96.61 99.54 97.10 98.88 97.88 C 91.64 103.86 84.23 109.70 76.09 114.41 C 73.17 115.99 70.17 117.87 66.71 117.63 C 63.40 105.46 63.61 92.64 63.81 80.12 Z" />
</g>
<g id="#231f20ff">
<path fill="#231f20" opacity="1.00" d=" M 114.30 108.25 C 118.10 108.31 121.89 108.30 125.69 108.29 C 125.67 128.07 125.63 147.85 125.71 167.64 C 121.94 167.63 118.16 167.62 114.39 167.70 L 114.33 166.20 C 108.06 168.58 100.57 170.05 94.50 166.34 C 88.82 162.62 87.83 155.24 87.59 149.01 C 87.37 141.83 87.65 133.54 93.10 128.15 C 98.89 123.01 107.28 124.00 114.29 125.40 C 114.27 119.68 114.26 113.97 114.30 108.25 M 103.92 134.82 C 99.54 136.55 99.22 141.95 99.20 145.97 C 99.36 149.70 98.95 154.32 102.17 156.95 C 105.92 159.15 110.42 157.52 114.35 156.68 C 114.22 149.61 114.28 142.53 114.31 135.46 C 110.91 134.84 107.37 134.15 103.92 134.82 Z" />
<path fill="#231f20" opacity="1.00" d=" M 0.00 109.21 C 8.35 109.20 16.69 109.13 25.04 109.22 C 30.64 109.21 36.72 111.22 39.87 116.13 C 43.16 121.35 43.00 127.89 42.31 133.80 C 41.65 138.78 38.08 142.56 34.33 145.58 C 37.17 152.90 39.70 160.33 42.61 167.62 C 38.29 167.64 33.97 167.63 29.66 167.68 C 27.32 161.33 25.12 154.95 22.69 148.64 C 19.01 148.68 15.32 148.68 11.64 148.68 C 11.66 155.01 11.63 161.33 11.65 167.66 C 7.77 167.63 3.88 167.64 0.00 167.61 L 0.00 109.21 M 11.61 120.35 C 11.66 126.08 11.66 131.82 11.62 137.56 C 15.93 137.48 20.25 137.78 24.55 137.42 C 32.43 136.32 33.07 122.75 25.56 120.62 C 20.95 120.00 16.26 120.45 11.61 120.35 Z" />
<path fill="#231f20" opacity="1.00" d=" M 134.97 113.51 C 138.84 113.42 142.70 113.43 146.57 113.43 C 146.53 117.40 146.53 121.37 146.53 125.34 C 150.02 125.32 153.51 125.32 157.00 125.37 L 157.00 135.51 C 153.51 135.54 150.02 135.54 146.54 135.53 C 146.73 142.33 146.15 149.18 146.82 155.95 C 148.69 159.26 153.43 157.16 156.51 157.62 C 156.63 160.57 156.82 163.50 157.00 166.44 L 157.00 167.42 C 151.85 168.50 146.27 169.51 141.18 167.64 C 137.20 166.12 135.50 161.66 135.34 157.69 C 135.00 150.33 135.26 142.96 135.18 135.59 C 133.48 135.55 131.77 135.52 130.07 135.48 C 130.18 132.10 130.17 128.73 130.07 125.36 C 131.69 125.36 133.30 125.35 134.92 125.36 C 135.27 121.42 135.29 117.45 134.97 113.51 Z" />
<path fill="#231f20" opacity="1.00" d=" M 78.04 121.43 C 79.69 122.45 81.34 123.48 82.98 124.51 C 81.80 126.27 80.61 128.02 79.43 129.78 C 84.46 136.38 84.29 145.10 83.54 152.94 C 82.92 158.98 79.37 165.03 73.48 167.22 C 67.25 169.45 60.18 169.13 54.06 166.66 C 53.14 167.78 52.23 168.91 51.27 170.00 L 51.17 170.00 C 49.54 169.13 47.94 168.21 46.35 167.29 C 47.41 165.90 48.47 164.51 49.53 163.12 C 44.66 156.50 44.66 147.88 45.44 140.05 C 46.10 134.52 48.98 128.84 54.19 126.36 C 60.64 123.29 68.29 123.84 74.90 126.13 C 75.94 124.56 76.99 123.00 78.04 121.43 M 57.93 138.12 C 55.88 142.50 56.60 147.52 56.81 152.19 C 60.87 146.75 64.43 140.95 68.55 135.54 C 65.03 133.72 59.83 134.24 57.93 138.12 M 60.14 157.44 C 63.79 159.16 69.14 158.85 71.08 154.80 C 73.05 150.35 72.50 145.30 72.08 140.59 C 67.87 146.04 64.26 151.92 60.14 157.44 Z" />
</g>
</svg>
